<?xml version="1.0" encoding="UTF-8" standalone="no"?>
<svg
   xmlns:dc="http://purl.org/dc/elements/1.1/"
   xmlns:cc="http://creativecommons.org/ns#"
   xmlns:rdf="http://www.w3.org/1999/02/22-rdf-syntax-ns#"
   xmlns:svg="http://www.w3.org/2000/svg"
   xmlns="http://www.w3.org/2000/svg"
   xmlns:sodipodi="http://sodipodi.sourceforge.net/DTD/sodipodi-0.dtd"
   xmlns:inkscape="http://www.inkscape.org/namespaces/inkscape"
   width="198"
   height="58"
   version="1.1"
   id="svg32"
   sodipodi:docname="pluginIcon.svg"
   inkscape:version="1.0.2 (1.0.2+r75+1)">
  <metadata
     id="metadata38">
    <rdf:RDF>
      <cc:Work
         rdf:about="">
        <dc:format>image/svg+xml</dc:format>
        <dc:type
           rdf:resource="http://purl.org/dc/dcmitype/StillImage" />
      </cc:Work>
    </rdf:RDF>
  </metadata>
  <defs
     id="defs36" />
  <sodipodi:namedview
     pagecolor="#ffffff"
     bordercolor="#666666"
     borderopacity="1"
     objecttolerance="10"
     gridtolerance="10"
     guidetolerance="10"
     inkscape:pageopacity="0"
     inkscape:pageshadow="2"
     inkscape:window-width="1920"
     inkscape:window-height="1016"
     id="namedview34"
     showgrid="false"
     inkscape:zoom="6.6414141"
     inkscape:cx="56.994735"
     inkscape:cy="54.075966"
     inkscape:window-x="0"
     inkscape:window-y="27"
     inkscape:window-maximized="1"
     inkscape:current-layer="svg32" />
  <rect
     rx="8"
     x="140"
     width="55"
     height="58"
     fill="#555"
     id="rect2" />
  <g
     stroke="#555"
     stroke-width="8"
     id="g8">
    <path
       d="M135.5 54a8 8 0 0 0 8.5 -8.5"
       id="path4" />
    <rect
       x="4"
       y="4"
       rx="8"
       width="190"
       height="50"
       fill="none"
       id="rect6" />
  </g>
  <g
     fill="#555"
     id="g24">
    <path
       d="m23.906 33.641c.953-.083 1.906-.167 2.859-.25.108 2.099 1.511 4.139 3.578 4.722 2.438.895 5.357.799 7.559-.658 1.49-1.129 1.861-3.674.324-4.925-1.557-1.322-3.685-1.504-5.576-2.057-2.343-.565-4.912-1.133-6.611-2.979-1.805-2.088-1.627-5.485.292-7.443 2.041-2.113 5.222-2.55 8.02-2.274 2.46.244 5.058 1.343 6.252 3.635.426.908 1.095 2.241.656 3.108-.888.173-1.81.148-2.715.245-.077-2.084-1.727-4.073-3.863-4.234-1.902-.317-4.02-.252-5.691.802-1.398.989-1.849 3.363-.381 4.494 1.281 1.01 2.962 1.199 4.482 1.642 2.66.627 5.602 1.118 7.596 3.158 2 2.188 1.893 5.84-.088 8.01-2.01 2.32-5.304 2.972-8.237 2.713-2.585-.147-5.319-1.024-6.916-3.184-.987-1.288-1.517-2.905-1.542-4.523"
       id="path10" />
    <path
       d="m45.953 41c0-7.635 0-15.271 0-22.906.938 0 1.875 0 2.813 0 0 2.74 0 5.479 0 8.219 1.391-1.721 3.69-2.523 5.86-2.236 1.975.154 4.03 1.371 4.513 3.402.504 1.973.278 4.02.33 6.04 0 2.495 0 4.989 0 7.484-.938 0-1.875 0-2.813 0-.009-3.675.018-7.351-.014-11.03-.026-1.342-.627-2.835-2-3.282-2.187-.802-5.077.393-5.609 2.773-.417 1.764-.216 3.586-.264 5.381 0 2.051 0 4.102 0 6.153-.938 0-1.875 0-2.813 0"
       id="path12" />
    <path
       d="m63.781 21.328v-3.234h2.813v3.234zm0 19.672v-16.594h2.813v16.594z"
       id="path14" />
    <path
       d="m82.25 35.656c.969.12 1.938.24 2.906.359-.702 3.464-4.348 5.767-7.781 5.386-3.235-.066-6.43-2.328-7.06-5.598-.843-3.307-.404-7.285 2.101-9.784 3.082-3 8.699-2.618 11.235.892 1.374 1.85 1.676 4.267 1.578 6.51-4.125 0-8.25 0-12.375 0-.142 2.889 2.267 6 5.346 5.658 1.881-.162 3.613-1.566 4.045-3.423m-9.234-4.547c3.089 0 6.177 0 9.266 0 .129-2.774-2.616-5.422-5.419-4.713-2.174.427-3.912 2.474-3.846 4.713"
       id="path16" />
    <path
       d="m88.64 41v-22.906h2.813v22.906z"
       id="path18" />
    <path
       d="m106.59 41c0-.698 0-1.396 0-2.094-1.412 2.442-4.776 3.067-7.233 1.949-2.378-1.02-3.971-3.403-4.345-5.924-.507-2.761-.123-5.768 1.389-8.167 1.863-2.705 5.968-3.642 8.711-1.741.422.228 1.028 1.144 1.294 1.018-.006-2.649-.0001-5.298-.003-7.948.932 0 1.865 0 2.797 0 0 7.635 0 15.271 0 22.906-.87 0-1.74 0-2.61 0m-8.89-8.281c-.075 2.246.637 4.861 2.79 5.952 2 1.023 4.682-.047 5.488-2.134.897-1.996.746-4.278.388-6.382-.425-1.95-2.046-3.804-4.158-3.805-1.903-.065-3.633 1.363-4.099 3.181-.327 1.028-.394 2.116-.408 3.188"
       id="path20" />
    <path
       d="m112.52 36.05c.927-.146 1.854-.292 2.781-.438.126 1.69 1.513 3.244 3.239 3.365 1.398.212 3.01.12 4.12-.851.807-.749 1.1-2.243.159-3.01-.908-.723-2.115-.812-3.182-1.172-1.797-.485-3.713-.848-5.243-1.97-1.83-1.551-1.868-4.679-.099-6.293 1.577-1.507 3.918-1.784 6-1.594 1.685.176 3.54.749 4.535 2.217.464.715.708 1.549.844 2.384-.917.125-1.833.25-2.75.375-.121-1.569-1.653-2.762-3.19-2.695-1.246-.082-2.702.012-3.608.982-.624.724-.543 1.971.314 2.481.998.706 2.269.757 3.389 1.173 1.754.512 3.647.848 5.141 1.965 1.686 1.476 1.728 4.244.396 5.966-1.298 1.788-3.597 2.417-5.709 2.448-1.466-.007-2.984-.214-4.299-.893-1.599-.909-2.585-2.655-2.84-4.444"
       id="path22" />
  </g>
  <g
     fill="#fff"
     id="g30">
    <path
       d="m151.11 41v-22.906h3.03v22.906z"
       id="path26" />
    <path
       d="m158.55 29.844c-.277-4.765 2.335-9.977 7.05-11.551 4.902-1.757 11.226.197 13.477 5.098 2.266 4.706 1.89 10.92-1.767 14.833-4.554 4.948-13.81 3.976-17.08-1.954-1.111-1.946-1.679-4.188-1.68-6.426m3.125.047c-.377 4.273 2.892 8.844 7.375 8.951 3.791.221 7.557-2.653 7.997-6.497.794-3.731.139-8.292-3.107-10.696-3.788-2.814-10.05-1.104-11.591 3.444-.54 1.539-.642 3.181-.675 4.798"
       id="path28" />
  </g>
  <path
     style="fill:#ffffff;stroke-width:0.15057"
     d="M 10.275742,49.471863 C 9.4105601,49.040725 8.828834,48.432166 8.4158255,47.526156 8.1550819,46.954166 8.1411807,46.022675 8.1394371,29.006004 L 8.1376012,11.088133 8.4935123,10.335281 C 8.929543,9.412954 9.4822275,8.8779802 10.4685,8.4235821 l 0.752851,-0.346856 64.331179,-0.03868 64.33118,-0.03868 -0.003,19.4622549 c -0.003,18.509435 -0.0168,19.491741 -0.27786,20.064536 -0.41975,0.920802 -1.05933,1.58788 -1.89595,1.97746 l -0.759,0.353438 -62.946486,0.0015 -62.946481,0.0014 z m 70.20222,-8.375644 c 1.213855,-0.399086 2.079823,-0.928442 2.962042,-1.810661 0.781255,-0.781255 1.586182,-2.189818 1.664501,-2.912756 0.04589,-0.423595 0.02771,-0.435112 -0.856538,-0.542661 -0.496882,-0.06043 -1.154218,-0.147156 -1.460744,-0.192714 -0.544883,-0.08098 -0.564376,-0.06685 -0.87321,0.632986 -0.949396,2.151385 -3.47804,3.256013 -5.610369,2.450866 -1.042951,-0.393807 -2.178352,-1.440771 -2.712652,-2.50136 -0.339114,-0.673141 -0.711085,-2.008964 -0.711085,-2.553646 0,-0.18738 0.891146,-0.218444 6.266478,-0.218444 h 6.266477 l -0.100161,-1.317491 c -0.145125,-1.908924 -0.354769,-2.834084 -0.922172,-4.069579 -1.944195,-4.23339 -7.81501,-5.468631 -11.636058,-2.448268 -0.956342,0.755945 -1.783355,2.028845 -2.34721,3.612718 -0.431025,1.210752 -0.457788,1.415045 -0.454537,3.469768 0.0049,3.086139 0.515333,4.758128 1.916806,6.278547 2.070673,2.246415 5.5915,3.114593 8.608432,2.122695 z m -44.291658,0.09226 c 2.451013,-0.541847 4.452446,-2.004373 5.412968,-3.955468 0.461954,-0.938363 0.489,-1.085079 0.489,-2.652739 0,-1.478307 -0.04331,-1.751806 -0.396779,-2.505647 -1.069757,-2.281469 -2.8688,-3.32514 -7.750712,-4.496388 -4.206019,-1.009089 -5.301811,-1.493535 -5.874317,-2.597022 -0.486095,-0.936933 -0.16621,-2.573318 0.646751,-3.308483 0.155983,-0.141056 0.688307,-0.445961 1.182942,-0.677567 0.857089,-0.401318 1.001907,-0.420884 3.082609,-0.416464 2.502506,0.0053 2.871869,0.11148 4.003837,1.1508 0.787171,0.722745 1.412972,1.894844 1.415224,2.650657 l 0.0015,0.493547 1.01635,-0.08716 c 2.095282,-0.179692 1.995057,-0.128066 1.995057,-1.027645 0,-1.180682 -0.895423,-2.947364 -2.010253,-3.966255 -1.491818,-1.363438 -3.205376,-1.976275 -5.902485,-2.110967 -3.959988,-0.197758 -7.079336,1.275132 -8.290339,3.914521 -0.375537,0.818487 -0.429294,1.11391 -0.430482,2.365701 -0.0012,1.225635 0.05449,1.549961 0.38874,2.265426 0.697914,1.493896 1.79395,2.448365 3.701635,3.223527 0.495725,0.201432 2.28418,0.717673 3.974343,1.147202 1.690163,0.429529 3.484595,0.96577 3.987628,1.191648 2.028372,0.9108 2.786492,2.502556 2.008864,4.217825 -0.399341,0.880854 -0.80458,1.302746 -1.678734,1.747718 -2.138087,1.088352 -5.064751,1.087328 -7.418119,-0.0026 -1.38046,-0.639338 -2.444933,-2.048696 -2.80086,-3.708329 l -0.16409,-0.765125 -0.851365,0.08967 c -0.468251,0.04932 -1.145002,0.126147 -1.503889,0.17072 l -0.652525,0.08104 0.103261,0.779379 c 0.49071,3.703692 3.062522,6.192973 7.098084,6.870306 1.292999,0.217019 4.060756,0.173596 5.216185,-0.08183 z m 68.353456,-0.334138 c 0.54348,-0.267555 1.19721,-0.724578 1.45274,-1.015606 l 0.46459,-0.529142 v 0.90866 0.908662 h 1.43042 1.43042 V 29.608285 18.089654 h -1.5057 -1.50571 v 3.932349 3.932349 l -0.62185,-0.561806 c -2.33974,-2.113815 -6.398707,-1.831431 -8.703458,0.605505 -2.943415,3.112227 -2.996114,9.902162 -0.101838,13.121293 1.479775,1.645865 3.117057,2.346813 5.301786,2.269783 1.18417,-0.04175 1.50477,-0.114444 2.3586,-0.534786 z m 17.16556,0.352485 c 2.87544,-0.609318 4.62937,-2.568661 4.62559,-5.167308 -0.002,-1.692445 -0.78582,-2.97542 -2.27859,-3.731865 -0.72901,-0.369415 -3.25907,-1.174703 -5.42506,-1.72673 -0.6896,-0.175751 -1.51455,-0.465763 -1.83322,-0.644474 -1.43055,-0.802246 -1.28059,-2.358318 0.30119,-3.125476 1.0264,-0.497794 3.14445,-0.51257 4.06117,-0.02833 0.74656,0.394356 1.3233,1.047497 1.56103,1.767822 0.19939,0.604161 0.22101,0.60828 1.8902,0.36002 l 1.14839,-0.170803 -0.10126,-0.544406 c -0.49237,-2.647259 -2.87708,-4.221428 -6.40918,-4.230768 -2.77515,-0.0073 -4.80614,0.949393 -5.79132,2.728097 -0.39842,0.719333 -0.44713,0.947705 -0.44524,2.08754 0.002,1.098765 0.0601,1.390373 0.41187,2.061006 0.73048,1.392572 1.87733,2.009498 5.65597,3.042534 2.95989,0.809198 3.45811,1.015271 3.94436,1.631475 0.26087,0.330584 0.3139,0.553349 0.25571,1.074202 -0.18298,1.637837 -1.94776,2.603126 -4.30667,2.355629 -1.78969,-0.187775 -3.04815,-1.187044 -3.47056,-2.755766 -0.0938,-0.348377 -0.21877,-0.632902 -0.27769,-0.632278 -0.17768,0.0019 -2.03884,0.296915 -2.41881,0.383428 -0.3174,0.07226 -0.34414,0.138716 -0.2569,0.638541 0.26988,1.546168 1.65922,3.437401 3.00311,4.087967 1.49117,0.721862 4.18315,0.957978 6.15591,0.539941 z M 48.788652,36.492929 c 0,-5.339813 0.137246,-6.843903 0.722638,-7.919463 0.790526,-1.452455 2.756148,-2.300248 4.489981,-1.936572 1.062921,0.222951 1.723339,0.72101 2.182735,1.64613 0.357726,0.720378 0.359187,0.744791 0.405941,6.783436 l 0.04692,6.060456 h 1.42972 1.429721 l -0.05196,-6.662737 c -0.05989,-7.678764 -0.04634,-7.591656 -1.389189,-8.934501 -0.982579,-0.982579 -2.091007,-1.422152 -3.854282,-1.528508 -1.905331,-0.114924 -3.547163,0.418782 -4.816729,1.565757 l -0.595496,0.537996 v -4.007634 -4.007635 h -1.430419 -1.430418 v 11.518631 11.518631 h 1.430418 1.430419 z m 17.91787,-3.797952 v -8.431939 h -1.505703 -1.505703 v 8.431939 8.431939 h 1.505703 1.505703 z M 91.550629,29.608285 V 18.089654 h -1.505703 -1.505704 v 11.518631 11.518631 h 1.505704 1.505703 z M 66.706522,19.745928 v -1.656274 h -1.505703 -1.505703 v 1.656274 1.656273 h 1.505703 1.505703 z"
     id="path40" />
  <path
     style="fill:#ffffff;stroke-width:0.15057"
     d="M 151.17648,29.608285 V 18.240224 h 1.43042 1.43042 v 11.368061 11.368061 h -1.43042 -1.43042 z"
     id="path42" />
  <path
     style="fill:#ffffff;stroke-width:0.15057"
     d="m 166.86279,40.984597 c -1.37837,-0.338526 -3.32239,-1.298988 -4.34801,-2.14817 -3.94355,-3.265168 -5.09096,-10.236713 -2.52422,-15.336929 1.82824,-3.63279 5.22186,-5.712773 9.31609,-5.70993 3.28149,0.0023 6.26726,1.24825 8.22699,3.433149 0.92882,1.035534 1.95862,3.091241 2.42817,4.847165 0.45748,1.710795 0.49444,5.23478 0.0718,6.850951 -0.37947,1.451252 -1.43642,3.584671 -2.31247,4.66768 -1.43362,1.772272 -3.69397,3.104158 -5.98185,3.524736 -1.32506,0.243582 -3.60593,0.18341 -4.87654,-0.128652 z m 4.651,-2.356453 c 3.88556,-1.141293 5.86107,-4.247253 5.86173,-9.215991 8.4e-4,-6.374059 -4.3588,-10.320894 -9.84929,-8.916664 -3.00711,0.769089 -4.94686,2.789165 -5.58229,5.813433 -0.38203,1.818294 -0.4592,4.65169 -0.16295,5.983274 0.65606,2.948859 2.631,5.315537 5.18933,6.218655 1.2251,0.43247 3.28905,0.485752 4.54347,0.117293 z"
     id="path44" />
  <path
     style="fill:#ffffff;stroke-width:0.15057"
     d="M 10.275742,49.471863 C 9.4105601,49.040725 8.828834,48.432166 8.4158255,47.526156 8.1550819,46.954166 8.1411807,46.022675 8.1394371,29.006004 L 8.1376012,11.088133 8.4935123,10.335281 C 8.929543,9.412954 9.4822275,8.8779802 10.4685,8.4235821 l 0.752851,-0.346856 64.331179,-0.03868 64.33118,-0.03868 -0.003,19.4622549 c -0.003,18.509435 -0.0168,19.491741 -0.27786,20.064536 -0.41975,0.920802 -1.05933,1.58788 -1.89595,1.97746 l -0.759,0.353438 -62.946486,0.0015 -62.946481,0.0014 z m 70.207967,-8.372956 c 1.080807,-0.349868 2.240581,-1.085005 3.064526,-1.942488 0.700642,-0.729158 1.483388,-2.123619 1.554074,-2.768578 0.04847,-0.442263 0.03787,-0.449183 -0.854342,-0.5577 -0.496882,-0.06043 -1.154218,-0.147156 -1.460744,-0.192714 -0.544883,-0.08098 -0.564376,-0.06685 -0.87321,0.632986 -0.400876,0.908407 -1.220108,1.75995 -2.183156,2.269264 -1.036507,0.54816 -2.833506,0.572742 -3.816237,0.05221 -0.875964,-0.463982 -1.879981,-1.491175 -2.329206,-2.38297 -0.334495,-0.664031 -0.705507,-2.001155 -0.705507,-2.542639 0,-0.187379 0.890917,-0.218444 6.264653,-0.218444 h 6.264654 l -0.101478,-1.392776 c -0.200854,-2.756652 -0.919717,-4.600475 -2.333484,-5.985171 -2.256885,-2.21048 -5.941081,-2.763672 -8.813367,-1.323349 -1.298711,0.651245 -1.930646,1.202924 -2.695094,2.35282 -1.420142,2.136197 -1.91191,4.949191 -1.380845,7.898664 0.446428,2.479402 1.527833,4.169663 3.383701,5.288798 2.044074,1.232626 4.748727,1.545728 7.015062,0.812092 z M 37.080895,40.937723 c 0.641305,-0.209288 1.497193,-0.593045 1.901975,-0.852793 1.04837,-0.672737 2.226628,-1.976119 2.698776,-2.985373 0.362647,-0.775186 0.405288,-1.040165 0.405919,-2.522451 6.03e-4,-1.475729 -0.04254,-1.748514 -0.396072,-2.50248 -0.715304,-1.525531 -1.933921,-2.584882 -3.8859,-3.378043 -0.516226,-0.209761 -2.169166,-0.685702 -3.673204,-1.057647 -4.486654,-1.109537 -5.491005,-1.549584 -6.065925,-2.65772 -0.486095,-0.936933 -0.16621,-2.573318 0.646751,-3.308483 0.155983,-0.141056 0.688307,-0.445961 1.182942,-0.677567 0.85761,-0.401562 1.000644,-0.42083 3.082609,-0.415254 2.503104,0.0067 2.875537,0.113638 4.003837,1.14959 0.787171,0.722745 1.412972,1.894844 1.415224,2.650657 l 0.0015,0.493547 1.01635,-0.08716 c 0.558992,-0.04794 1.244375,-0.122118 1.523071,-0.164844 l 0.506722,-0.07768 -0.06374,-0.881166 C 41.33688,23.042863 41.152812,22.447472 40.760698,21.654082 39.852749,19.816971 38.281595,18.61402 35.959091,17.977739 34.756963,17.6484 31.334772,17.61547 30.117956,17.921529 c -2.099095,0.527979 -3.889866,1.781047 -4.702959,3.290832 -1.196622,2.221941 -0.811392,4.959723 0.937582,6.663277 1.266859,1.23396 2.855285,1.846569 8.207202,3.165276 3.200081,0.788496 4.598513,1.958062 4.588249,3.837335 -0.003,0.549714 -0.497477,1.67871 -0.946264,2.160532 -0.819295,0.879566 -2.812895,1.528441 -4.696012,1.528441 -3.530093,0 -5.953131,-1.669302 -6.565118,-4.522904 l -0.16409,-0.765125 -0.851366,0.08968 c -2.010644,0.211784 -2.131293,0.240253 -2.128599,0.502256 0.007,0.685534 0.47581,2.348477 0.897458,3.183755 1.132108,2.242697 3.272328,3.687319 6.253809,4.221246 0.413084,0.07398 1.699655,0.113717 2.859047,0.08831 1.76416,-0.03865 2.298167,-0.108254 3.273992,-0.426713 z m 67.289875,0.0073 c 0.45295,-0.20737 1.10768,-0.647316 1.45494,-0.977658 l 0.63138,-0.600624 v 0.880109 0.880108 h 1.43042 1.43042 V 29.608285 18.089654 h -1.5057 -1.50571 v 3.927625 3.927625 l -0.69306,-0.610057 c -1.34448,-1.183457 -3.55738,-1.65155 -5.47962,-1.159096 -2.537466,0.650069 -4.259237,2.523399 -5.062217,5.507819 -0.361552,1.343773 -0.366774,4.517452 -0.0097,5.872244 0.739045,2.803741 2.477522,4.793044 4.884764,5.589529 1.243723,0.41151 3.289963,0.318837 4.424043,-0.200364 z m 17.31366,0.266218 c 2.07731,-0.440308 3.73092,-1.716584 4.35007,-3.357449 0.26226,-0.695023 0.31441,-1.092058 0.26227,-1.996794 -0.0988,-1.715034 -0.82907,-2.846233 -2.31861,-3.591711 -0.66472,-0.33267 -3.2906,-1.159229 -5.3509,-1.684319 -1.49635,-0.381359 -2.3367,-0.822599 -2.62371,-1.37761 -0.68601,-1.326594 0.43181,-2.521326 2.58474,-2.762602 1.96019,-0.219673 3.51697,0.532953 4.06373,1.964604 0.29137,0.762946 0.26619,0.756442 1.95561,0.505171 l 1.14839,-0.170802 -0.10126,-0.544407 c -0.52818,-2.839779 -3.2628,-4.442134 -7.15113,-4.19022 -3.59778,0.23309 -5.76363,2.257922 -5.53223,5.172043 0.0861,1.084186 0.68644,2.3134 1.39313,2.852421 0.80471,0.613783 2.13075,1.130136 4.80655,1.871646 2.87703,0.797275 3.36811,1.003136 3.85014,1.613994 0.26087,0.330585 0.3139,0.553349 0.25571,1.074202 -0.18298,1.637838 -1.94776,2.603126 -4.30667,2.355629 -1.78249,-0.187019 -3.00759,-1.154282 -3.48649,-2.752715 -0.10488,-0.350056 -0.23079,-0.635953 -0.27979,-0.635328 -0.16527,0.0021 -2.04347,0.302076 -2.40078,0.383427 -0.31828,0.07246 -0.344,0.137343 -0.25316,0.638542 0.28181,1.554822 1.70724,3.465024 3.06029,4.101032 1.52657,0.717571 4.12348,0.944701 6.0741,0.531246 z m -72.895778,-4.71827 c 0,-5.316916 0.138193,-6.845643 0.714557,-7.904615 1.268105,-2.329927 4.99155,-2.780001 6.398825,-0.773463 0.227151,0.32388 0.481238,0.953842 0.564639,1.399917 0.08439,0.45138 0.151637,3.272485 0.151637,6.361597 v 5.550551 h 1.440352 1.440352 l -0.05555,-6.587452 c -0.06507,-7.715997 -0.06303,-7.702885 -1.401355,-9.009511 -0.978699,-0.955516 -2.084009,-1.413577 -3.682353,-1.526035 -1.913103,-0.134603 -3.718861,0.427617 -4.952192,1.541857 l -0.61891,0.559148 v -4.007634 -4.007635 h -1.430419 -1.430418 v 11.518631 11.518631 h 1.430418 1.430419 z m 17.91787,-3.797952 V 24.26308 h -1.505703 -1.505703 v 8.431939 8.431939 h 1.505703 1.505703 z M 91.550629,29.608285 V 18.089654 h -1.505703 -1.505704 v 11.518631 11.518631 h 1.505704 1.505703 z M 66.706522,19.745928 v -1.656274 h -1.505703 -1.505703 v 1.656274 1.656273 h 1.505703 1.505703 z"
     id="path46" />
  <path
     style="fill:#ffffff;stroke-width:0.15057"
     d="m 101.06996,38.806106 c -2.37097,-0.77155 -3.655042,-3.751893 -3.206368,-7.442002 0.217255,-1.786811 0.624289,-2.855553 1.386779,-3.641248 1.781849,-1.836072 4.470339,-1.660378 6.038219,0.3946 0.7187,0.94199 0.98599,1.737464 1.1928,3.549909 0.26797,2.348406 -0.21158,4.640606 -1.22888,5.873935 -0.9151,1.109434 -2.8562,1.696423 -4.18255,1.264806 z"
     id="path48" />
  <path
     style="fill:#ffffff;stroke-width:0.15057"
     d="m 73.116163,30.474065 c 0.493784,-2.806866 3.402909,-4.718919 5.911806,-3.885597 1.491315,0.495335 2.874177,2.180568 3.126652,3.810311 l 0.09913,0.639924 h -4.618462 -4.618463 z"
     id="path50" />
  <path
     style="fill:#ffffff;stroke-width:0.15057"
     d=""
     id="path52" />
  <path
     style="fill:#ffffff;stroke-width:0.15057"
     d="M 151.17648,29.608285 V 18.240224 h 1.43042 1.43042 v 11.368061 11.368061 h -1.43042 -1.43042 z"
     id="path54" />
  <path
     style="fill:#ffffff;stroke-width:0.15057"
     d="m 166.89479,40.992118 c -2.22684,-0.547615 -4.53234,-1.96662 -5.74693,-3.537156 -0.77279,-0.999271 -1.74449,-2.989105 -2.0671,-4.232989 -0.38999,-1.503693 -0.55962,-3.899243 -0.38045,-5.372833 0.73883,-6.07645 4.94259,-10.063505 10.60634,-10.059572 3.32301,0.0023 6.31764,1.265627 8.29129,3.497778 0.86942,0.983292 1.91193,3.092468 2.36387,4.782536 0.45748,1.710795 0.49444,5.23478 0.0718,6.850951 -0.37947,1.451252 -1.43642,3.584671 -2.31247,4.66768 -1.43362,1.772272 -3.69397,3.104158 -5.98185,3.524736 -1.30978,0.240774 -3.60638,0.183349 -4.84454,-0.121131 z m 4.52715,-2.354309 c 3.03251,-0.789869 5.14966,-3.177924 5.72074,-6.452771 1.13755,-6.523203 -1.80803,-11.54871 -6.99433,-11.933139 -3.99099,-0.295829 -7.40234,2.217708 -8.20263,6.043839 -0.38375,1.834695 -0.46145,4.662788 -0.16473,5.996458 0.65767,2.956099 2.69404,5.365963 5.28809,6.257975 1.10464,0.37985 3.07841,0.419589 4.35286,0.08764 z"
     id="path56" />
</svg>
